{
  "accessors": [
    {
      "bufferView": 2,
      "componentType": 5126,
      "count": 4872,
      "max": [
        1.0528279542922974,
        2.6369340419769287,
        1.4996789693832397
      ],
      "min": [
        -1.0528279542922974,
        -2.3969719409942627,
        0.1219710037112236
      ],
      "type": "VEC3"
    },
    {
      "bufferView": 2,
      "byteOffset": 58464,
      "componentType": 5126,
      "count": 4872,
      "max": [
        1.0,
        1.0,
        1.0
      ],
      "min": [
        -1.0,
        -1.0,
        -1.0
      ],
      "type": "VEC3"
    },
    {
      "bufferView": 1,
      "componentType": 5126,
      "count": 4872,
      "max": [
        0.9960939884185791,
        1.000038981437683
      ],
      "min": [
        0.0,
        0.004922000225633383
      ],
      "type": "VEC2"
    },
    {
      "bufferView": 0,
      "componentType": 5125,
      "count": 10593,
      "type": "SCALAR"
    },
    {
      "bufferView": 2,
      "byteOffset": 116928,
      "componentType": 5126,
      "count": 2667,
      "max": [
        1.157060980796814,
        2.274538993835449,
        1.4475619792938232
      ],
      "min": [
        -1.157060980796814,
        -2.2053210735321045,
        -0.0019130000146105886
      ],
      "type": "VEC3"
    },
    {
      "bufferView": 2,
      "byteOffset": 148932,
      "componentType": 5126,
      "count": 2667,
      "max": [
        1.0,
        0.9404401183128357,
        0.9997683167457581
      ],
      "min": [
        -1.0,
        -0.9404401183128357,
        -0.9989849925041199
      ],
      "type": "VEC3"
    },
    {
      "bufferView": 1,
      "byteOffset": 38976,
      "componentType": 5126,
      "count": 2667,
      "max": [
        2.0,
        0.9504650235176086
      ],
      "min": [
        -0.04968300089240074,
        0.029292000457644463
      ],
      "type": "VEC2"
    },
    {
      "bufferView": 0,
      "byteOffset": 42372,
      "componentType": 5125,
      "count": 6444,
      "type": "SCALAR"
    },
    {
      "bufferView": 2,
      "byteOffset": 180936,
      "componentType": 5126,
      "count": 91,
      "max": [
        0.8728299736976624,
        1.5086569786071777,
        1.3942220211029053
      ],
      "min": [
        -0.8728299736976624,
        -0.3330309987068176,
        0.9378229975700378
      ],
      "type": "VEC3"
    },
    {
      "bufferView": 2,
      "byteOffset": 182028,
      "componentType": 5126,
      "count": 91,
      "max": [
        0.901740550994873,
        0.6459108591079712,
        0.7920823693275452
      ],
      "min": [
        -0.9017369151115417,
        -0.04120168462395668,
        0.43031758069992065
      ],
      "type": "VEC3"
    },
    {
      "bufferView": 1,
      "byteOffset": 60312,
      "componentType": 5126,
      "count": 91,
      "max": [
        0.9829099774360657,
        0.9936519861221313
      ],
      "min": [
        0.022461000829935074,
        0.009398999623954296
      ],
      "type": "VEC2"
    },
    {
      "bufferView": 0,
      "byteOffset": 68148,
      "componentType": 5125,
      "count": 192,
      "type": "SCALAR"
    },
    {
      "bufferView": 2,
      "byteOffset": 183120,
      "componentType": 5126,
      "count": 32,
      "max": [
        0.8438019752502441,
        -0.10954599827528,
        1.4001059532165527
      ],
      "min": [
        -0.843280017375946,
        -0.6391029953956604,
        0.9316329956054688
      ],
      "type": "VEC3"
    },
    {
      "bufferView": 2,
      "byteOffset": 183504,
      "componentType": 5126,
      "count": 32,
      "max": [
        0.4428834319114685,
        -0.6759724617004395,
        0.6724985837936401
      ],
      "min": [
        -0.44290950894355774,
        -0.7557089328765869,
        0.5888126492500305
      ],
      "type": "VEC3"
    },
    {
      "bufferView": 1,
      "byteOffset": 61040,
      "componentType": 5126,
      "count": 32,
      "max": [
        0.9995120167732239,
        0.9785159826278687
      ],
      "min": [
        0.0,
        0.003261999925598502
      ],
      "type": "VEC2"
    },
    {
      "bufferView": 0,
      "byteOffset": 68916,
      "componentType": 5125,
      "count": 72,
      "type": "SCALAR"
    }
  ],
  "asset": {
    "extras": {
      "author": "hotstar (https://sketchfab.com/flotick64)",
      "license": "CC-BY-4.0 (http://creativecommons.org/licenses/by/4.0/)",
      "source": "https://sketchfab.com/3d-models/cars-2-the-video-game-chick-hicks-purple-rage-33522856a2694bae88c2905d435fa051",
      "title": "Cars 2 The Video Game - Chick Hicks purple rage"
    },
    "generator": "Sketchfab-15.31.0",
    "version": "2.0"
  },
  "bufferViews": [
    {
      "buffer": 0,
      "byteLength": 69204,
      "name": "floatBufferViews",
      "target": 34963
    },
    {
      "buffer": 0,
      "byteLength": 61296,
      "byteOffset": 69204,
      "byteStride": 8,
      "name": "floatBufferViews",
      "target": 34962
    },
    {
      "buffer": 0,
      "byteLength": 183888,
      "byteOffset": 130500,
      "byteStride": 12,
      "name": "floatBufferViews",
      "target": 34962
    }
  ],
  "buffers": [
    {
      "byteLength": 314388,
      "uri": "scene.bin"
    }
  ],
  "images": [
    {
      "uri": "textures/Material.009_baseColor.png"
    },
    {
      "uri": "textures/Material.010_baseColor.png"
    },
    {
      "uri": "textures/Material.011_baseColor.png"
    },
    {
      "uri": "textures/Material.012_baseColor.png"
    }
  ],
  "materials": [
    {
      "doubleSided": true,
      "name": "Material.009",
      "pbrMetallicRoughness": {
        "baseColorTexture": {
          "index": 0
        },
        "metallicFactor": 0.6048281342447486,
        "roughnessFactor": 0.6
      }
    },
    {
      "doubleSided": true,
      "name": "Material.010",
      "pbrMetallicRoughness": {
        "baseColorTexture": {
          "index": 1
        },
        "metallicFactor": 0.5873727763226343
      }
    },
    {
      "doubleSided": true,
      "name": "Material.011",
      "pbrMetallicRoughness": {
        "baseColorTexture": {
          "index": 2
        },
        "metallicFactor": 0.6397388500889769
      }
    },
    {
      "doubleSided": true,
      "name": "Material.012",
      "pbrMetallicRoughness": {
        "baseColorTexture": {
          "index": 3
        },
        "metallicFactor": 0.6048281342447486,
        "roughnessFactor": 0.7270156396995479
      }
    }
  ],
  "meshes": [
    {
      "name": "Object_0",
      "primitives": [
        {
          "attributes": {
            "NORMAL": 1,
            "POSITION": 0,
            "TEXCOORD_0": 2
          },
          "indices": 3,
          "material": 0,
          "mode": 4
        }
      ]
    },
    {
      "name": "Object_1",
      "primitives": [
        {
          "attributes": {
            "NORMAL": 5,
            "POSITION": 4,
            "TEXCOORD_0": 6
          },
          "indices": 7,
          "material": 1,
          "mode": 4
        }
      ]
    },
    {
      "name": "Object_2",
      "primitives": [
        {
          "attributes": {
            "NORMAL": 9,
            "POSITION": 8,
            "TEXCOORD_0": 10
          },
          "indices": 11,
          "material": 2,
          "mode": 4
        }
      ]
    },
    {
      "name": "Object_3",
      "primitives": [
        {
          "attributes": {
            "NORMAL": 13,
            "POSITION": 12,
            "TEXCOORD_0": 14
          },
          "indices": 15,
          "material": 3,
          "mode": 4
        }
      ]
    }
  ],
  "nodes": [
    {
      "children": [
        1
      ],
      "matrix": [
        1.0,
        0.0,
        0.0,
        0.0,
        0.0,
        2.220446049250313e-16,
        -1.0,
        0.0,
        0.0,
        1.0,
        2.220446049250313e-16,
        0.0,
        0.0,
        0.0,
        0.0,
        1.0
      ],
      "name": "Sketchfab_model"
    },
    {
      "children": [
        2,
        3,
        4,
        5
      ],
      "name": "chickhicks.obj.cleaner.materialmerger.gles"
    },
    {
      "mesh": 0,
      "name": "Object_2"
    },
    {
      "mesh": 1,
      "name": "Object_3"
    },
    {
      "mesh": 2,
      "name": "Object_4"
    },
    {
      "mesh": 3,
      "name": "Object_5"
    }
  ],
  "samplers": [
    {
      "magFilter": 9729,
      "minFilter": 9987,
      "wrapS": 10497,
      "wrapT": 10497
    }
  ],
  "scene": 0,
  "scenes": [
    {
      "name": "Sketchfab_Scene",
      "nodes": [
        0
      ]
    }
  ],
  "textures": [
    {
      "sampler": 0,
      "source": 0
    },
    {
      "sampler": 0,
      "source": 1
    },
    {
      "sampler": 0,
      "source": 2
    },
    {
      "sampler": 0,
      "source": 3
    }
  ]
}
